<svg xmlns="http://www.w3.org/2000/svg" width="800" height="1000" viewBox="0 0 800 1000">
  <defs>
    <linearGradient id="g" x1="0" y1="0" x2="1" y2="1">
      <stop offset="0%" stop-color="#ffe2ea" />
      <stop offset="100%" stop-color="#fff7fb" />
    </linearGradient>
  </defs>
  <rect width="800" height="1000" fill="url(#g)" />
  <g opacity="0.35" fill="#ff9db8">
    <path d="M10 30 A20 20 0 0 1 50 30 A20 20 0 0 1 90 30 Q90 60 50 90 Q10 60 10 30 Z" transform="translate(80 120) scale(1.2)" />
    <path d="M10 30 A20 20 0 0 1 50 30 A20 20 0 0 1 90 30 Q90 60 50 90 Q10 60 10 30 Z" transform="translate(560 160) scale(1.1)" />
    <path d="M10 30 A20 20 0 0 1 50 30 A20 20 0 0 1 90 30 Q90 60 50 90 Q10 60 10 30 Z" transform="translate(140 700) scale(1.4)" />
    <path d="M10 30 A20 20 0 0 1 50 30 A20 20 0 0 1 90 30 Q90 60 50 90 Q10 60 10 30 Z" transform="translate(520 720) scale(1.2)" />
  </g>
  <text
    x="50%"
    y="52%"
    text-anchor="middle"
    fill="#6f4b5a"
    font-family="Quicksand, sans-serif"
    font-size="32"
    font-weight="600"
  >
    Add your photo
  </text>
</svg>
